<svg width="556" height="452" viewBox="0 0 556 452" fill="none" xmlns="http://www.w3.org/2000/svg">
<path fill-rule="evenodd" clip-rule="evenodd" d="M418.166 71.8567C425.637 71.8567 431.717 77.9265 431.717 85.397C431.717 92.8556 425.638 98.9374 418.166 98.9374C410.687 98.9374 404.591 92.8554 404.591 85.397C404.595 77.9263 410.687 71.8567 418.166 71.8567ZM418.166 116.285C435.219 116.285 449.093 102.434 449.093 85.397C449.093 68.3683 435.219 54.5132 418.166 54.5132C401.109 54.5132 387.219 68.3642 387.219 85.397C387.223 102.434 401.105 116.285 418.166 116.285ZM470.324 308.74C471.608 319.214 468.797 328.767 462.202 336.365C454.449 345.302 441.578 351.315 426.917 352.993V364.021C426.917 368.809 423.031 372.697 418.227 372.697C413.424 372.697 409.537 368.817 409.537 364.021L409.541 352.862C387.844 349.893 370.972 336.193 366.095 316.632C364.941 311.983 367.769 307.282 372.421 306.113C377.081 304.966 381.794 307.78 382.956 312.432C387.453 330.449 405.623 336.459 419.815 336.112C432 335.817 443.48 331.471 449.069 325.022C452.453 321.113 453.774 316.465 453.083 310.828C451.462 297.496 440.325 289.838 416.956 286.015C379.761 279.908 371.108 261.09 370.392 246.365C369.402 225.962 383.705 208.864 405.986 203.819C407.161 203.558 408.339 203.333 409.542 203.141V191.863C409.542 187.076 413.429 183.188 418.232 183.188C423.027 183.188 426.922 187.068 426.922 191.863V203.063C442.833 205.416 458.524 214.623 466.367 233.257C468.216 237.673 466.134 242.754 461.723 244.608C457.288 246.466 452.199 244.387 450.341 239.968C442.809 222.061 424.57 217.413 409.832 220.741C398.687 223.261 387.055 231.104 387.747 245.522C387.972 250.044 388.635 263.793 419.77 268.891C431.312 270.786 466.42 276.545 470.324 308.74ZM523.389 426.106C531.788 426.106 538.621 419.28 538.621 410.886L538.498 119.103C538.498 114.553 536.85 110.844 533.454 107.793L448.946 31.954C437.375 21.5668 428.448 17.3387 418.166 17.3387H418.141C407.847 17.3387 398.932 21.5786 387.353 31.9781L302.894 107.875C299.498 110.938 297.841 114.635 297.841 119.197L297.89 216.616H308.196C327.455 216.616 343.121 232.26 343.121 251.474C343.121 259.1 340.654 266.154 336.485 271.901C348.828 277.289 357.478 289.592 357.478 303.872C357.478 316.632 350.575 327.819 340.302 333.889C345.38 339.951 348.452 347.761 348.452 356.269C348.452 374.605 334.206 389.677 316.18 391.037C319.236 396.208 320.975 402.237 320.975 408.666C320.975 415.046 319.24 421.03 316.229 426.177L523.389 426.106ZM170.73 426.183C140.663 426.183 120.754 418.762 101.495 411.581C95.6854 409.408 89.7287 407.19 83.5585 405.205L83.5544 260.735L84.3932 260.723C99.5762 260.588 111.482 254.433 119.805 242.424C121.413 240.095 122.861 237.996 124.162 236.084C135.838 219.071 135.838 219.071 153.813 207.361C188.516 184.712 191.069 173.454 201.841 126.105C202.005 125.399 202.173 124.696 202.328 123.969C209.484 127.764 214.365 133.944 217.155 142.684C225.354 168.376 212.421 207.953 202.307 219.603C200.081 222.172 199.562 225.795 200.973 228.879C202.377 231.971 205.478 233.96 208.878 233.96H308.201C317.877 233.96 325.749 241.823 325.749 251.479C325.749 261.139 317.881 269.015 308.201 269.015L239.714 269.019C234.919 269.019 231.032 272.899 231.032 277.687C231.032 282.47 234.919 286.363 239.714 286.363H322.536C332.212 286.363 340.097 294.225 340.097 303.882C340.097 313.542 332.217 321.401 322.536 321.401L239.714 321.397C234.919 321.397 231.032 325.289 231.032 330.072C231.032 334.86 234.919 338.748 239.714 338.748H313.528C323.204 338.748 331.076 346.615 331.076 356.28C331.076 365.94 323.2 373.799 313.528 373.799L239.714 373.795C234.919 373.795 231.032 377.688 231.032 382.471C231.032 387.258 234.919 391.147 239.714 391.147H286.049C295.725 391.147 303.597 399.009 303.597 408.678C303.597 418.338 295.721 426.189 286.049 426.189L170.73 426.183ZM66.1791 432.4C66.1791 433.626 65.148 434.647 63.9288 434.647L19.6271 434.643C18.4037 434.643 17.3768 433.626 17.3768 432.396V241.311C17.3768 240.098 18.4038 239.064 19.6271 239.064H63.9288C65.144 239.064 66.1791 240.094 66.1791 241.311V432.4ZM555.879 119.108C555.879 109.611 552.127 101.242 545.057 94.8985L460.553 19.0667C450.043 9.6353 436.79 0 418.158 0H418.133C399.484 0 386.229 9.64796 375.731 19.0918L291.272 94.9843C284.202 101.34 280.482 109.709 280.482 119.206L280.523 216.62H224.434C234.577 195.564 241.659 162.327 233.709 137.428C228.125 119.909 215.813 108.361 198.126 104.02C195.863 103.473 193.478 103.848 191.502 105.057C189.53 106.279 188.118 108.235 187.599 110.506C186.633 114.677 185.741 118.594 184.903 122.278C174.466 168.14 173.128 174.047 144.308 192.857C123.948 206.136 122.497 207.852 109.829 226.301C108.532 228.172 107.117 230.259 105.517 232.567C100.399 239.973 93.8365 243.309 84.2989 243.388L83.5666 243.4V241.321C83.5666 230.517 74.7578 221.727 63.9404 221.727H19.6261C8.80442 221.727 0 230.517 0 241.321V432.406C0 443.214 8.80463 452 19.6261 452H63.9279C74.7412 452 83.554 443.218 83.554 432.406V423.518C87.4695 424.886 91.3809 426.336 95.4064 427.844C115.152 435.204 137.523 443.537 170.729 443.537H286.058C290.972 443.537 295.652 442.52 299.891 440.678C304.064 442.557 308.581 443.537 313.217 443.537H313.229L523.4 443.464C541.386 443.464 556.008 428.848 556 410.893L555.879 119.108Z" fill="white"/>
</svg>
