<svg width="528" height="460" viewBox="0 0 528 460" fill="none" xmlns="http://www.w3.org/2000/svg">
<path d="M223.756 460H5.99439C2.68672 460 0.00366211 457.317 0.00366211 454.009V387.47C0.00366211 347.478 33.9874 314.94 75.7553 314.94H80.3211C83.6288 314.94 86.3118 317.623 86.3118 320.931C86.3118 335.8 99.1273 347.902 114.874 347.902C130.626 347.902 143.437 335.805 143.437 320.931C143.437 317.623 146.12 314.94 149.427 314.94H153.993C195.761 314.94 229.745 347.478 229.745 387.47V454.009C229.745 457.317 227.062 460 223.754 460H223.756ZM11.9864 448.018H217.764V387.47C217.764 354.385 189.672 327.409 154.939 326.93C151.926 345.57 135.106 359.883 114.874 359.883C94.6382 359.883 77.8178 345.57 74.8097 326.93C40.0811 327.409 11.9842 354.383 11.9842 387.47L11.9864 448.018Z" fill="white"/>
<path d="M80.3198 326.926C77.0122 326.926 74.3291 324.243 74.3291 320.936V297.615C74.3291 294.307 77.012 291.624 80.3198 291.624C83.6275 291.624 86.3106 294.307 86.3106 297.615V320.936C86.3106 324.248 83.6276 326.926 80.3198 326.926Z" fill="white"/>
<path d="M149.431 326.926C146.123 326.926 143.44 324.243 143.44 320.936V297.615C143.44 294.307 146.123 291.624 149.431 291.624C152.739 291.624 155.422 294.307 155.422 297.615V320.936C155.422 324.248 152.739 326.926 149.431 326.926Z" fill="white"/>
<path d="M115.516 313.376H115.315C90.3289 313.286 62.9222 296.751 58.0135 260.016C57.5771 256.738 59.8792 253.721 63.157 253.285C66.439 252.844 69.4514 255.151 69.8879 258.428C73.8375 288.01 95.5704 301.326 115.357 301.395C134.707 301.48 156.124 288.596 160.194 259.692C160.656 256.414 163.694 254.137 166.959 254.595C170.236 255.057 172.517 258.087 172.055 261.36C166.997 297.317 140.047 313.376 115.516 313.376Z" fill="white"/>
<path d="M166.125 267.083C165.265 267.083 164.392 266.899 163.575 266.509C161.093 265.337 159.72 262.632 160.25 259.937C162.488 248.456 166.224 213.372 154.431 203.068C150.404 199.551 144.499 199.183 136.381 201.938C132.693 203.192 129.796 204.519 127.241 205.687C117.228 210.27 111.148 212.302 93.1282 204.472C92.1739 204.142 83.9368 201.515 77.5653 206.62C69.1013 213.406 66.3754 231.81 69.8972 258.444C70.2524 261.152 68.7376 263.758 66.2087 264.781C63.6798 265.808 60.7743 264.991 59.1483 262.8C24.5094 216.111 36.1265 182.811 46.1312 167.12C63.748 139.485 101.699 124.595 136.368 131.72C166.997 138.014 187.588 160.077 192.855 192.256C195.187 206.483 195.414 234.841 170.767 264.893C169.59 266.314 167.874 267.084 166.124 267.084L166.125 267.083ZM145.954 188.13C152.33 188.13 157.807 190.107 162.321 194.052C172.783 203.201 175.004 221.189 174.701 236.462C182.95 218.529 182.488 203.112 181.025 194.189C174.97 157.214 148.932 146.529 133.946 143.453C104.442 137.389 71.031 150.334 56.2218 173.556C45.0155 191.13 45.2116 212.657 56.4186 235.619C56.7438 217.043 61.3524 204.147 70.2102 197.15C82.2469 187.642 96.8644 193.068 97.4811 193.308L97.7378 193.41C111.833 199.555 114.666 198.258 122.248 194.788C124.927 193.564 128.26 192.037 132.527 190.59C137.362 188.952 141.846 188.13 145.954 188.13Z" fill="white"/>
<path d="M53.1858 460C49.8781 460 47.1951 457.317 47.1951 454.009V389.263C47.1951 385.956 49.878 383.273 53.1858 383.273C56.4935 383.273 59.1765 385.956 59.1765 389.263V454.009C59.1765 457.317 56.4979 460 53.1858 460Z" fill="white"/>
<path d="M176.565 460C173.257 460 170.574 457.317 170.574 454.009V389.263C170.574 385.956 173.257 383.273 176.565 383.273C179.872 383.273 182.555 385.956 182.555 389.263V454.009C182.555 457.317 179.872 460 176.565 460Z" fill="white"/>
<path d="M521.288 460H303.526C300.218 460 297.535 457.317 297.535 454.009V387.47C297.535 347.478 331.519 314.94 373.287 314.94H377.853C381.16 314.94 383.843 317.623 383.843 320.931C383.843 335.8 396.659 347.902 412.406 347.902C428.157 347.902 440.968 335.805 440.968 320.931C440.968 317.623 443.651 314.94 446.959 314.94H451.525C493.293 314.94 527.276 347.478 527.276 387.47V454.009C527.276 457.317 524.598 460 521.286 460H521.288ZM309.518 448.018H515.296V387.47C515.296 354.385 487.203 327.409 452.47 326.93C449.458 345.57 432.637 359.883 412.406 359.883C392.17 359.883 375.349 345.57 372.341 326.93C337.613 327.409 309.516 354.383 309.516 387.47L309.518 448.018Z" fill="white"/>
<path d="M377.851 326.926C374.544 326.926 371.861 324.243 371.861 320.936V297.615C371.861 294.307 374.544 291.624 377.851 291.624C381.159 291.624 383.842 294.307 383.842 297.615V320.936C383.842 324.248 381.159 326.926 377.851 326.926Z" fill="white"/>
<path d="M446.962 326.926C443.655 326.926 440.972 324.243 440.972 320.936V297.615C440.972 294.307 443.655 291.624 446.962 291.624C450.27 291.624 452.953 294.307 452.953 297.615V320.936C452.953 324.248 450.27 326.926 446.962 326.926Z" fill="white"/>
<path d="M413.048 313.376H412.847C387.861 313.286 360.454 296.751 355.546 260.016C355.109 256.738 357.411 253.721 360.689 253.285C363.984 252.844 366.983 255.151 367.42 258.428C371.369 288.01 393.102 301.326 412.889 301.395H413.043C432.389 301.395 453.664 288.519 457.725 259.692C458.187 256.418 461.208 254.133 464.49 254.595C467.768 255.057 470.049 258.087 469.587 261.36C464.529 297.317 437.579 313.376 413.048 313.376Z" fill="white"/>
<path d="M463.657 267.083C462.797 267.083 461.924 266.899 461.107 266.509C458.625 265.341 457.255 262.632 457.782 259.941C460.02 248.461 463.755 213.372 451.962 203.068C447.936 199.551 442.03 199.178 433.913 201.938C430.224 203.192 427.327 204.519 424.768 205.687C414.755 210.27 408.675 212.302 390.655 204.472C389.701 204.142 381.46 201.515 375.092 206.62C366.628 213.406 363.902 231.81 367.424 258.444C367.784 261.152 366.265 263.758 363.736 264.781C361.207 265.808 358.301 264.991 356.675 262.8C322.037 216.111 333.654 182.811 343.658 167.12C361.275 139.485 399.227 124.599 433.895 131.72C464.524 138.014 485.115 160.077 490.382 192.256C492.71 206.483 492.941 234.841 468.294 264.893C467.126 266.314 465.41 267.084 463.655 267.084L463.657 267.083ZM443.485 188.13C449.861 188.13 455.338 190.107 459.852 194.052C470.315 203.201 472.535 221.186 472.232 236.458C480.482 218.524 480.016 203.107 478.556 194.189C472.502 157.214 446.463 146.529 431.482 143.453C401.986 137.389 368.567 150.334 353.762 173.556C342.556 191.13 342.752 212.657 353.955 235.619C354.28 217.043 358.888 204.15 367.746 197.155C379.783 187.646 394.4 193.072 395.017 193.312C395.103 193.346 395.188 193.38 395.274 193.415C409.364 199.559 412.201 198.263 419.784 194.792C422.463 193.569 425.796 192.041 430.062 190.595C434.898 188.952 439.382 188.13 443.485 188.13Z" fill="white"/>
<path d="M350.718 460C347.41 460 344.727 457.317 344.727 454.009V389.263C344.727 385.956 347.41 383.273 350.718 383.273C354.025 383.273 356.708 385.956 356.708 389.263V454.009C356.708 457.317 354.025 460 350.718 460Z" fill="white"/>
<path d="M474.097 460C470.789 460 468.106 457.317 468.106 454.009V389.263C468.106 385.956 470.789 383.273 474.097 383.273C477.404 383.273 480.087 385.956 480.087 389.263V454.009C480.087 457.317 477.404 460 474.097 460Z" fill="white"/>
<path d="M74.3935 92.3933C73.5976 92.3933 72.7975 92.235 72.0443 91.914L48.2657 81.7684L24.487 91.914C22.5487 92.7399 20.3192 92.4874 18.6161 91.2508C16.9131 90.0099 15.9846 87.9687 16.1728 85.872L18.4749 60.1248L1.47815 40.6425C0.0917654 39.055 -0.357584 36.8555 0.292887 34.8529C0.943303 32.8503 2.59933 31.3355 4.65327 30.8648L29.8527 25.0967L43.1261 2.91408C44.2087 1.10408 46.1599 0 48.2653 0C50.3748 0 52.326 1.10825 53.4044 2.91408L66.6778 25.0967L91.8772 30.8648C93.9312 31.3355 95.5871 32.8503 96.2376 34.8529C96.888 36.8554 96.4387 39.0548 95.0523 40.6425L78.0555 60.1204L80.3577 85.8676C80.546 87.9644 79.6174 90.0096 77.9143 91.2464C76.8745 92.0038 75.6387 92.3933 74.3935 92.3933ZM48.2651 69.2609C49.0653 69.2609 49.8655 69.4235 50.6143 69.7402L67.5333 76.9589L65.8944 58.6399C65.749 57.0138 66.271 55.3964 67.345 54.1683L79.4376 40.3089L61.5129 36.2052C59.9211 35.8415 58.5476 34.8445 57.7088 33.441L48.2649 17.6602L38.821 33.4454C37.9823 34.8489 36.6088 35.8459 35.0169 36.2096L17.0879 40.3133L29.1804 54.1727C30.2545 55.4051 30.7808 57.0183 30.631 58.6443L28.9921 76.9633L45.9112 69.7446C46.6686 69.4236 47.465 69.2609 48.2651 69.2609Z" fill="white"/>
<path d="M182.086 92.3933C181.29 92.3933 180.49 92.235 179.737 91.914L155.962 81.7684L132.184 91.914C130.245 92.7399 128.016 92.4874 126.313 91.2508C124.61 90.0141 123.681 87.9687 123.87 85.872L126.172 60.1248L109.171 40.6425C107.784 39.055 107.335 36.8555 107.985 34.8529C108.636 32.8503 110.292 31.3355 112.346 30.8648L137.545 25.0967L150.818 2.91408C151.901 1.10408 153.852 0 155.958 0C158.067 0 160.018 1.10825 161.097 2.91408L174.37 25.0967L199.57 30.8648C201.624 31.3355 203.28 32.8503 203.93 34.8529C204.58 36.8554 204.131 39.0548 202.745 40.6425L185.748 60.1204L188.05 85.8676C188.238 87.9686 187.31 90.0096 185.607 91.2464C184.567 92.0038 183.331 92.3933 182.086 92.3933ZM124.781 40.3085L136.874 54.168C137.948 55.4004 138.474 57.0136 138.324 58.6396L136.69 76.9586L153.609 69.7399C155.111 69.098 156.81 69.098 158.312 69.7399L175.231 76.9586L173.596 58.6396C173.451 57.0135 173.973 55.3961 175.047 54.168L187.139 40.3085L169.206 36.2049C167.614 35.8412 166.24 34.8442 165.402 33.4407L155.958 17.6555L146.514 33.4407C145.675 34.8399 144.302 35.8412 142.71 36.2049L124.781 40.3085Z" fill="white"/>
<path d="M237.515 92.3933C236.27 92.3933 235.033 92.0039 233.993 91.2508C232.29 90.0098 231.362 87.9687 231.55 85.8719L233.852 60.1248L216.855 40.6468C215.469 39.0593 215.02 36.8599 215.67 34.8572C216.321 32.8545 217.977 31.3399 220.03 30.8692L245.23 25.101L258.503 2.91845C259.586 1.10846 261.537 0.00436401 263.642 0.00436401C265.748 0.00436401 267.703 1.11262 268.782 2.91845L282.055 25.101L307.254 30.8692C309.308 31.3399 310.964 32.8547 311.615 34.8572C312.265 36.8598 311.816 39.0592 310.434 40.6468L293.437 60.1248L295.739 85.8719C295.927 87.9687 294.999 90.014 293.296 91.2508C291.593 92.4874 289.363 92.7399 287.425 91.914L263.642 81.7684L239.863 91.914C239.11 92.2349 238.311 92.3933 237.515 92.3933ZM232.466 40.3086L244.558 54.168C245.632 55.4004 246.158 57.0136 246.009 58.6396L244.37 76.9586L261.289 69.7399C262.791 69.098 264.49 69.098 265.992 69.7399L282.911 76.9586L281.272 58.6396C281.126 57.0135 281.653 55.3961 282.727 54.168L294.819 40.3086L276.89 36.2049C275.298 35.8412 273.925 34.8442 273.086 33.4407L263.642 17.6598L254.198 33.4451C253.36 34.8443 251.986 35.8456 250.394 36.2093L232.466 40.3086Z" fill="white"/>
<path d="M397.46 92.3933C396.664 92.3933 395.864 92.235 395.111 91.914L371.332 81.7684L347.553 91.914C345.615 92.7399 343.386 92.4874 341.682 91.2508C339.979 90.0099 339.051 87.9687 339.235 85.872L341.537 60.1248L324.54 40.6469C323.154 39.0593 322.704 36.8599 323.359 34.8572C324.01 32.8547 325.666 31.3399 327.72 30.8692L352.919 25.1011L366.192 2.91848C367.275 1.10849 369.226 0.00439453 371.332 0.00439453C373.441 0.00439453 375.392 1.11265 376.471 2.91848L389.744 25.1011L414.944 30.8692C416.997 31.3399 418.653 32.8547 419.304 34.8572C419.954 36.8598 419.505 39.0592 418.123 40.6469L401.126 60.1248L403.428 85.872C403.617 87.9687 402.688 90.014 400.981 91.2508C399.937 92.0039 398.705 92.3933 397.46 92.3933ZM340.151 40.3085L352.243 54.168C353.317 55.4004 353.844 57.0136 353.698 58.6396L352.059 76.9586L368.978 69.7399C370.48 69.098 372.179 69.098 373.681 69.7399L390.6 76.9586L388.961 58.6396C388.816 57.0135 389.342 55.3961 390.416 54.168L402.509 40.3085L384.58 36.2049C382.988 35.8412 381.614 34.8442 380.776 33.4407L371.332 17.6555L361.888 33.4407C361.049 34.8399 359.676 35.8412 358.084 36.2049L340.151 40.3085Z" fill="white"/>
<path d="M452.889 92.3933C451.644 92.3933 450.407 92.0039 449.367 91.2508C447.664 90.0098 446.736 87.9687 446.924 85.8719L449.226 60.1248L432.229 40.6468C430.843 39.0593 430.394 36.8599 431.048 34.8572C431.699 32.8547 433.355 31.3399 435.409 30.8692L460.608 25.101L473.882 2.91845C474.964 1.10846 476.915 0.00436401 479.021 0.00436401C481.13 0.00436401 483.082 1.11262 484.16 2.91845L497.433 25.101L522.633 30.8692C524.687 31.3399 526.343 32.8547 526.993 34.8572C527.644 36.8598 527.194 39.0592 525.812 40.6468L508.815 60.1248L511.118 85.8719C511.306 87.9687 510.377 90.014 508.67 91.2508C506.967 92.4874 504.733 92.7399 502.799 91.914L479.02 81.7684L455.242 91.914C454.48 92.2349 453.681 92.3933 452.889 92.3933ZM479.017 69.2609C479.818 69.2609 480.618 69.4236 481.366 69.7402L498.286 76.9589L496.647 58.6355C496.501 57.0095 497.028 55.3963 498.102 54.164L510.194 40.3045L492.265 36.2009C490.673 35.8372 489.3 34.8401 488.461 33.4367L479.017 17.6514L469.573 33.4367C468.734 34.8401 467.361 35.8372 465.769 36.2009L447.84 40.3045L459.933 54.164C461.007 55.3963 461.533 57.0096 461.387 58.6355L459.749 76.9545L476.668 69.7358C477.416 69.4234 478.217 69.2609 479.017 69.2609Z" fill="white"/>
</svg>
