<svg width="659" height="434" viewBox="0 0 659 434" fill="none" xmlns="http://www.w3.org/2000/svg">
<path d="M14.6666 0.800069C10.703 0.982362 6.97916 2.73233 4.3125 5.6646C1.64063 8.59687 0.244772 12.4719 0.432239 16.4302C0.614532 20.3938 2.3697 24.1177 5.30197 26.7843C8.23424 29.4562 12.1041 30.8521 16.0676 30.6646H643.268C647.268 30.7219 651.117 29.175 653.965 26.3677C656.809 23.5603 658.413 19.727 658.413 15.7322C658.413 11.7322 656.809 7.90407 653.965 5.09674C651.117 2.28941 647.268 0.742604 643.268 0.799804H16.0676C15.5988 0.773763 15.1354 0.774028 14.6666 0.800069ZM14.6666 202.4C10.703 202.582 6.97916 204.338 4.3125 207.265C1.64063 210.197 0.244772 214.072 0.432239 218.03C0.614532 221.994 2.3697 225.718 5.30197 228.39C8.23424 231.056 12.1041 232.452 16.0676 232.264H643.268C647.268 232.322 651.117 230.775 653.965 227.968C656.809 225.16 658.413 221.332 658.413 217.332C658.413 213.332 656.809 209.504 653.965 206.697C651.117 203.889 647.268 202.342 643.268 202.4H16.0676C15.5988 202.379 15.1354 202.379 14.6666 202.4ZM14.6666 404C10.703 404.182 6.97916 405.938 4.3125 408.87C1.64063 411.802 0.244772 415.672 0.432239 419.635C0.614532 423.594 2.3697 427.318 5.30197 429.99C8.23424 432.656 12.1041 434.052 16.0676 433.864H643.268C647.268 433.922 651.117 432.375 653.965 429.568C656.809 426.76 658.413 422.932 658.413 418.932C658.413 414.937 656.809 411.104 653.965 408.297C651.117 405.489 647.268 403.942 643.268 404H16.0676C15.5988 403.979 15.1354 403.979 14.6666 404Z" fill="#141417"/>
</svg>
