<svg width="665" height="461" viewBox="0 0 665 461" fill="none" xmlns="http://www.w3.org/2000/svg">
<path d="M661.332 240.642L573.045 119.683C569.894 115.34 564.847 112.767 559.488 112.767H452.072V16.8027C452.072 7.52666 444.546 0 435.269 0L16.8027 0.00520833C7.52666 0.00520833 0 7.53121 0 16.8079V384.568C0 393.844 7.526 401.371 16.8027 401.371H83.1667C90.8281 435.001 120.916 460.193 156.864 460.193C192.807 460.193 222.9 434.985 230.572 401.371H467.812C475.489 435.001 505.577 460.193 541.509 460.193C577.436 460.193 607.531 434.985 615.207 401.371H647.759C657.035 401.371 664.561 393.845 664.561 384.568V250.515C664.53 247.004 663.426 243.494 661.322 240.64L661.332 240.642ZM623.567 245.902H507.744V146.386H550.947L623.567 245.902ZM418.46 255.699H33.6067V226.626H418.46V255.699ZM418.46 33.6193V204.219H33.6067V33.6193H418.46ZM156.873 426.606C133.68 426.606 114.852 407.762 114.852 384.585C114.852 361.407 133.696 342.533 156.873 342.533C180.051 342.533 198.925 361.407 198.925 384.585C198.925 407.757 180.065 426.606 156.873 426.606ZM230.571 367.783C222.894 334.153 192.805 308.929 156.863 308.929C120.92 308.929 90.8267 334.153 83.1653 367.783H33.6133V278.095H418.467V367.783H230.571ZM541.504 426.606C518.311 426.606 499.468 407.762 499.468 384.585C499.468 361.407 518.328 342.533 541.504 342.533C564.68 342.533 583.54 361.407 583.54 384.585C583.545 407.757 564.68 426.606 541.504 426.606ZM615.187 367.783C607.51 334.153 577.421 308.929 541.489 308.929C505.563 308.929 475.468 334.153 467.792 367.783H452.037L452.043 146.383H485.329V268.301L630.943 268.295V367.779L615.187 367.783Z" fill="white"/>
</svg>
