<svg width="962" height="453" viewBox="0 0 962 453" fill="none" xmlns="http://www.w3.org/2000/svg">
<path d="M128.689 159.041C128.689 167.458 135.517 174.286 143.934 174.286H474.532C482.956 174.286 489.777 167.458 489.777 159.041C489.777 150.624 482.964 143.797 474.532 143.797H143.934C135.517 143.797 128.689 150.624 128.689 159.041Z" fill="white"/>
<path d="M430.906 85.7485C430.906 77.3316 424.094 70.5038 415.661 70.5038H85.0636C76.6467 70.5038 69.8188 77.3314 69.8188 85.7485C69.8188 94.1655 76.6465 100.993 85.0636 100.993H415.661C424.086 101.001 430.906 94.1657 430.906 85.7485Z" fill="white"/>
<path d="M47.3387 70.5212H15.2447C6.82783 70.5212 0 77.3488 0 85.7659C0 94.1829 6.82763 101.011 15.2447 101.011H47.3387C55.7556 101.011 62.5835 94.1831 62.5835 85.7659C62.5835 77.349 55.7558 70.5212 47.3387 70.5212Z" fill="white"/>
<path d="M376.198 232.314C376.198 223.897 369.386 217.07 360.953 217.07H178.835C170.418 217.07 163.59 223.897 163.59 232.314C163.59 240.731 170.418 247.559 178.835 247.559H360.977C369.386 247.567 376.198 240.731 376.198 232.314Z" fill="white"/>
<path d="M136.669 217.087H104.575C96.1579 217.087 89.3301 223.915 89.3301 232.332C89.3301 240.749 96.1577 247.576 104.575 247.576H136.669C145.086 247.576 151.914 240.749 151.914 232.332C151.906 223.915 145.086 217.087 136.669 217.087Z" fill="white"/>
<path d="M961.277 257.022C961.277 255.664 960.837 254.345 960.019 253.265L867.409 112.383L848.862 83.0442C833.617 60.7482 816.29 55.1392 800.907 55.1392H784.42C784.397 55.1392 784.335 55.1083 784.312 55.1083H714.114V28.0901C714.114 12.7065 701.593 0.185158 686.209 0.185158H680.909C680.755 0.185158 680.623 0.100294 680.454 0.100294H625.485L625.146 0C624.968 0 624.806 0.0540053 624.636 0.100294L190.844 0.0848639C182.427 0.0848639 175.6 6.91248 175.6 15.3296C175.6 23.7467 182.427 30.5743 190.844 30.5743H624.459C624.706 30.6052 624.899 30.7518 625.153 30.7518H674.104C679.172 31.6158 683.084 35.8205 683.084 41.1283C683.084 41.1515 683.238 41.1746 683.292 41.2055V61.3032L682.698 359.333C682.32 364.826 677.923 369.177 672.36 369.308L671.897 369.3C671.743 369.254 671.589 369.216 671.419 369.2V369.3H404.555C397.457 338.38 370.409 316.299 338.384 316.068C306.521 316.299 279.712 338.064 272.344 368.607H234.672V368.499C234.487 368.507 234.317 368.569 234.14 368.607H233.777C227.945 368.507 223.247 363.785 223.247 357.922C223.247 357.891 223.077 357.853 222.984 357.837V330.296H222.83V287.416C222.83 283.991 220.053 281.213 216.627 281.213H198.258C194.833 281.213 192.055 283.991 192.055 287.416L191.855 330.296H191.685V366.873L191.677 368.277L191.685 368.285V368.609C191.685 385.875 205.734 399.909 222.985 399.909H271.959L272.168 400.086C279.412 430.282 307.163 452.448 338.801 452.448C370.446 452.448 398.189 430.282 405.434 400.086H764.452C771.696 430.282 799.447 452.448 831.085 452.448C862.731 452.448 890.474 430.282 897.718 400.086L929.148 400.009C929.249 400.009 929.557 399.747 929.688 399.685H930.398C947.518 399.685 961.459 385.76 961.459 368.624L961.277 257.022ZM376.672 385.042C376.503 406.135 359.916 422.613 338.776 422.613C317.629 422.613 301.043 406.126 300.879 385.011C300.902 384.764 300.926 384.494 300.926 384.316C300.926 383.985 300.902 383.722 300.879 383.468C301.057 362.374 317.636 345.903 338.776 345.903C359.922 345.903 376.508 362.39 376.672 383.505C376.649 383.752 376.626 384.022 376.626 384.199C376.626 384.523 376.634 384.788 376.672 385.042ZM868.945 385.042C868.775 406.135 852.188 422.613 831.048 422.613C809.902 422.613 793.315 406.126 793.152 385.011C793.175 384.764 793.198 384.494 793.198 384.316C793.198 383.985 793.175 383.722 793.152 383.468C793.329 362.374 809.908 345.903 831.048 345.903C852.195 345.903 868.781 362.39 868.945 383.505C868.922 383.752 868.898 384.014 868.898 384.192C868.898 384.523 868.914 384.788 868.945 385.042ZM930.494 330.636H930.371V358.541C930.247 358.572 930.07 358.611 930.07 358.649C930.07 363.309 927.061 367.167 922.926 368.648H896.595C889.25 338.089 862.433 316.326 830.639 316.079C798.522 316.31 771.482 338.399 764.376 369.312H724.984V368.502C724.729 368.525 724.521 368.648 724.266 368.648C718.349 368.648 713.55 363.849 713.55 357.932C713.55 357.924 713.473 357.909 713.465 357.901L714.029 97.4166C714.106 97.3857 714.276 97.3626 714.276 97.3317C714.276 91.4144 719.074 86.6157 724.992 86.6157C725.246 86.6157 725.454 86.7391 725.709 86.7623V85.8673H814.476L930.492 265.509L930.494 330.636Z" fill="white"/>
</svg>
