<svg width="709" height="698" viewBox="0 0 709 698" fill="none" xmlns="http://www.w3.org/2000/svg">
<path d="M705.182 354.905C687.655 448.247 630.475 514.2 548.243 566.345C467.465 618.04 361.635 655.902 280.205 682.294C200.535 708.1 109.701 702.016 56.7455 661.715C2.11354 621.946 -14.6098 548.012 15.9952 450.421C46.2929 352.94 90.0678 251.643 130.781 173.242C174.094 94.0017 214.373 37.6833 297.396 10.787C337.664 -2.26883 396.678 -2.56555 453.633 9.90942C511.007 22.2708 566.324 47.4299 608.446 82.3456C650.988 117.122 680.364 161.654 695.136 209.743C710.299 257.693 710.885 309.174 705.154 354.879L705.182 354.905Z" fill="url(#paint0_linear_56_299)" fill-opacity="0.5"/>
<defs>
<linearGradient id="paint0_linear_56_299" x1="451.14" y1="711.07" x2="232.066" y2="-59.6102" gradientUnits="userSpaceOnUse">
<stop stop-color="#58003C"/>
<stop offset="1" stop-color="#7721A8"/>
</linearGradient>
</defs>
</svg>
