<svg width="255" height="255" viewBox="0 0 255 255" fill="none" xmlns="http://www.w3.org/2000/svg">
<path d="M174.352 9.24751C159.665 3.26351 143.615 0 127.023 0C62.2872 0 8.70318 48.416 1.08718 111.248C0.542642 116.416 0 121.585 0 127.024C0 197.2 56.848 254.048 127.024 254.048C197.2 254.048 254.048 197.2 254.048 127.024C254.048 73.712 221.137 28.0155 174.352 9.24751ZM169.455 162.384C171.36 164.288 171.36 167.552 169.455 169.455C168.368 170.542 167.278 170.815 165.918 170.815C164.558 170.815 163.471 170.271 162.382 169.455L127.021 134.095L91.6606 169.455C90.5734 170.542 89.4843 170.815 88.124 170.815C86.7636 170.815 85.6764 170.271 84.5874 169.455C82.6825 167.55 82.6825 164.287 84.5874 162.384L119.948 127.023L84.5874 91.6625C82.6825 89.7576 82.6825 86.4941 84.5874 84.591C86.4923 82.6861 89.7559 82.6861 91.6589 84.591L127.019 119.952L162.38 84.591C164.285 82.6861 167.548 82.6861 169.451 84.591C171.356 86.496 171.356 89.7595 169.451 91.6625L134.091 127.023L169.455 162.384Z" fill="white"/>
</svg>
