<svg width="555" height="556" viewBox="0 0 555 556" fill="none" xmlns="http://www.w3.org/2000/svg">
<path d="M99.96 375.4C88.8193 382.082 78.5386 390.108 69.3506 399.291C34.2573 434.384 30.5226 491.879 41.7253 509.051L43.9649 512.035L46.2045 513.53H46.1993C54.6733 518.061 64.2406 520.129 73.83 519.504C104.617 519.431 134.231 507.691 156.71 486.649C165.533 477.878 173.298 468.108 179.855 457.529C181.439 454.55 180.829 450.878 178.36 448.571L108.172 376.888V376.893C105.995 374.768 102.745 374.175 99.9589 375.399L99.96 375.4ZM146.252 476.203C114.892 507.563 64.8666 508.307 55.1586 501.588H54.4138C47.695 491.135 49.1847 441.109 79.7992 410.495H79.8044C86.7315 403.88 94.2257 397.88 102.2 392.573L164.174 456.043C158.752 463.23 152.762 469.975 146.256 476.199L146.252 476.203Z" fill="white"/>
<path d="M411.32 196.947C427.539 196.941 442.841 189.41 452.732 176.561C462.623 163.707 465.992 146.993 461.847 131.316C457.695 115.633 446.508 102.769 431.555 96.488C416.601 90.2068 399.581 91.2276 385.481 99.2432C371.383 107.259 361.804 121.363 359.555 137.426C357.305 153.489 362.638 169.681 373.987 181.265C383.82 191.296 397.279 196.947 411.32 196.947ZM384.44 117.801C391.461 110.838 400.951 106.947 410.836 106.973C420.716 106.999 430.191 110.947 437.169 117.942C444.149 124.942 448.065 134.421 448.065 144.306C448.065 154.191 444.149 163.67 437.169 170.666C430.19 177.666 420.716 181.614 410.836 181.64C400.951 181.666 391.461 177.775 384.44 170.812C377.372 163.801 373.398 154.26 373.398 144.307C373.398 134.353 377.372 124.812 384.44 117.801Z" fill="white"/>
<path d="M258.253 525.48C256.535 530.131 256.41 535.22 257.899 539.949C259.384 544.679 262.399 548.783 266.467 551.616C270.571 554.496 275.529 555.913 280.535 555.642C285.545 555.371 290.321 553.428 294.092 550.121L327.691 519.507C347.248 501.829 361.04 478.673 367.264 453.053L389.666 368.684C407.207 356.387 423.692 342.653 438.947 327.616C549.452 216.361 568.119 57.3225 546.468 19.2425C545.38 16.7581 543.864 14.4821 541.984 12.5237L537.505 9.53933C500.917 -13.606 341.878 2.82052 228.385 116.31C213.379 131.326 199.645 147.561 187.317 164.841L102.947 187.242C77.3273 193.471 54.1713 207.258 36.494 226.815L5.87931 260.414C1.41571 265.445 -0.558157 272.211 0.509576 278.846C1.57728 285.487 5.57209 291.294 11.3845 294.669C17.2022 298.044 24.2282 298.627 30.5205 296.257L51.4272 288.044C70.0258 281.049 90.9165 284.153 106.682 296.257L124.603 309.695L244.073 429.908L258.261 448.575H258.255C270.354 464.335 273.463 485.231 266.469 503.829L258.253 525.48ZM46.9467 274.6L26.04 282.814C22.7379 285.288 18.0608 284.621 15.5869 281.319C13.1129 278.022 13.7796 273.34 17.0765 270.866L47.6912 237.267C63.0819 219.762 83.3685 207.278 105.931 201.428L174.625 184.256C153.307 217.907 136.723 254.339 125.349 292.522L115.64 285.053C96.0149 270.094 70.1293 266.157 46.9467 274.6ZM238.84 127.507C346.361 19.9853 500.173 4.30933 529.293 22.976H531.533L533.028 25.2156C552.44 58.8143 531.533 211.136 427.746 314.922C378.929 363.406 318.528 398.616 252.28 417.214L138.04 302.974C156.206 236.881 190.894 176.496 238.837 127.508L238.84 127.507ZM262.736 429.907C301.179 418.605 337.867 402.016 371.747 380.625L353.829 450.068C348.319 472.808 336.089 493.365 318.736 509.052L285.137 539.667C282.57 541.948 278.778 542.182 275.945 540.24C273.117 538.292 271.976 534.667 273.189 531.453L280.653 509.803C289.377 486.401 285.424 460.157 270.2 440.36L262.736 429.907Z" fill="white"/>
</svg>
