<svg width="60" height="60" viewBox="0 0 60 60" fill="none" xmlns="http://www.w3.org/2000/svg">
<g clip-path="url(#clip0_48_293)">
<path d="M30 0C13.425 0 0 13.425 0 30C0 46.575 13.425 60 30 60C46.575 60 60 46.575 60 30C60 13.425 46.575 0 30 0ZM25 40H20V25H25V40ZM22.5 22.775C20.975 22.775 19.75 21.525 19.75 20C19.75 18.475 20.975 17.225 22.5 17.225C24.025 17.225 25.25 18.475 25.25 20C25.25 21.525 24.025 22.775 22.5 22.775ZM42.5 40H37.5V32.85C37.5 28.15 32.5 28.55 32.5 32.85V40H27.5V25H32.5V27.725C34.675 23.675 42.5 23.375 42.5 31.6V40Z" fill="white"/>
</g>
<defs>
<clipPath id="clip0_48_293">
<rect width="60" height="60" fill="white"/>
</clipPath>
</defs>
</svg>
