<svg width="33" height="33" viewBox="0 0 33 33" fill="none" xmlns="http://www.w3.org/2000/svg">
<path d="M8.49492 0C0.616722 0 0 0.616722 0 8.49492V24.5051C0 32.3833 0.616722 33 8.49492 33H24.5051C32.3833 33 33 32.3833 33 24.5051V8.54649C33 0.619885 32.3801 0 24.4535 0H8.49492ZM7.7 1.1H25.3C31.4215 1.1 31.9 1.5785 31.9 7.7V25.3C31.9 31.4215 31.4215 31.9 25.3 31.9H7.7C1.5785 31.9 1.1 31.4215 1.1 25.3V7.7C1.1 1.5785 1.5785 1.1 7.7 1.1ZM8.66465 5.3668C7.32045 5.3668 6.23047 6.45358 6.23047 7.79668C6.23047 9.13978 7.31935 10.2309 8.66465 10.2309C10.0055 10.2309 11.0945 9.13978 11.0945 7.79668C11.0945 6.45578 10.0055 5.3668 8.66465 5.3668ZM21.3941 11.8164C19.3646 11.8164 18.0052 12.9314 17.4475 13.9863H17.3916V12.1516H13.3891V25.575H17.5592V18.9342C17.5592 17.1841 17.8907 15.4859 20.0621 15.4859C22.2016 15.4859 22.232 17.4883 22.232 19.0459V25.575H26.4V18.2123C26.4 14.5977 25.6181 11.8164 21.3941 11.8164ZM6.57637 12.1516V25.575H10.7486V12.1516H6.57637Z" fill="white"/>
</svg>
