<svg width="60" height="60" viewBox="0 0 60 60" fill="none" xmlns="http://www.w3.org/2000/svg">
<circle cx="30" cy="30" r="30" fill="white"/>
<path d="M37.9742 31.3643C36.5483 31.3643 35.2126 30.8151 33.9987 29.9211L34.2942 28.659L34.3072 28.6124C34.5704 27.2685 35.4053 25.0131 37.9742 25.0131C39.9008 25.0131 41.4678 26.4387 41.4678 28.1916C41.4611 29.9387 39.8945 31.3643 37.9742 31.3643ZM37.9742 21.7937C34.6922 21.7937 32.1493 23.7337 31.1154 26.9237C29.5355 24.7679 28.3409 22.1794 27.6411 20H24.1089V28.3611C24.1089 30.0089 22.6318 31.3525 20.8206 31.3525C19.0094 31.3525 17.5326 30.0086 17.5326 28.3611V20H14V28.3611C13.9871 31.7851 17.0508 34.5955 20.8139 34.5955C24.577 34.5955 27.6407 31.7851 27.6407 28.3611V26.9588C28.3279 28.2618 29.1691 29.5763 30.1903 30.7449L28.0261 40H31.6418L33.2088 33.2867C34.583 34.0872 36.163 34.5897 37.9742 34.5897C41.8468 34.5897 45 31.7034 45 28.1801C45 24.6568 41.8468 21.7937 37.9742 21.7937Z" fill="#17171B"/>
</svg>
