<svg width="42" height="28" viewBox="0 0 42 28" fill="none" xmlns="http://www.w3.org/2000/svg">
<path d="M32.5326 16.0764C30.6368 16.0764 28.8609 15.3415 27.2469 14.1451L27.6398 12.4562L27.6571 12.3938C28.007 10.5954 29.1171 7.57724 32.5326 7.57724C35.0942 7.57724 37.1775 9.48498 37.1775 11.8307C37.1687 14.1686 35.0858 16.0764 32.5326 16.0764ZM32.5326 3.26914C28.1689 3.26914 24.788 5.8652 23.4134 10.134C21.3128 7.24911 19.7245 3.78528 18.7941 0.868774H14.0977V12.0575C14.0977 14.2626 12.1338 16.0606 9.72573 16.0606C7.31762 16.0606 5.35418 14.2622 5.35418 12.0575V0.868774H0.657403V12.0575C0.640139 16.6395 4.71354 20.4003 9.71686 20.4003C14.7202 20.4003 18.7936 16.6395 18.7936 12.0575V10.181C19.7072 11.9247 20.8256 13.6837 22.1834 15.2475L19.3059 27.6326H24.1133L26.1966 18.6489C28.0238 19.7201 30.1244 20.3926 32.5326 20.3926C37.6815 20.3926 41.8738 16.5301 41.8738 11.8153C41.8738 7.10042 37.6815 3.26914 32.5326 3.26914Z" fill="white"/>
</svg>
